<?xml version="1.0" encoding="UTF-8"?> <svg xmlns="http://www.w3.org/2000/svg" width="470" height="360" viewBox="0 0 470 360" fill="none"><g clip-path="url(#clip0_599_78)"><path d="M183.114 310.475C249.429 310.475 303.188 256.695 303.188 190.354C303.188 124.012 249.429 70.2317 183.114 70.2317C116.8 70.2317 63.041 124.012 63.041 190.354C63.041 256.695 116.8 310.475 183.114 310.475Z" fill="#FDF0E8"></path><path d="M319.222 303.795C321.994 298.962 332.322 287.785 350.836 284.995C353.864 284.54 360.59 283.524 362.932 285.373C367.582 289.044 345.55 301.59 348.253 303.511C351.128 305.553 376.997 292.447 381.182 294.946C383.148 296.119 363.335 304.082 363.343 316.075C363.343 318.785 364.344 321.081 365.321 322.738L312.891 320.424C312.891 320.424 312.388 315.705 319.222 303.795Z" fill="#F6CD7D"></path><path d="M241.002 330C310.539 330 366.91 326.907 366.91 323.091C366.91 319.276 310.539 316.183 241.002 316.183C171.465 316.183 115.094 319.276 115.094 323.091C115.094 326.907 171.465 330 241.002 330Z" fill="#F0D7CE"></path><path d="M342.618 294.33C342.618 302.09 339.999 309.112 335.764 314.196C331.529 319.28 325.68 322.426 319.217 322.426H211.084V266.23H319.217C329.777 266.23 338.7 274.627 341.613 286.162C341.847 287.084 342.04 288.029 342.194 288.99C342.472 290.719 342.618 292.503 342.618 294.328V294.33Z" fill="#DA606A"></path><path d="M260.215 294.33C260.215 302.09 257.596 309.112 253.361 314.196C249.127 319.28 243.275 322.426 236.815 322.426H131.994C130.162 322.426 128.678 320.643 128.678 318.445C128.678 316.247 130.162 314.464 131.994 314.464H135.31V274.194H131.994C130.162 274.194 128.678 272.411 128.678 270.213C128.678 268.015 130.162 266.232 131.994 266.232H236.813C249.738 266.232 260.213 278.812 260.213 294.33H260.215Z" fill="#FB7B88"></path><path d="M135.311 314.464V274.194H236.814C246.061 274.194 253.584 283.227 253.584 294.328C253.584 305.429 246.061 314.464 236.814 314.464H135.311Z" fill="white"></path><g style="mix-blend-mode:multiply" opacity="0.22"><path d="M249.615 307.324C250.683 304.74 251.283 301.828 251.283 298.753C251.283 288.083 244.051 279.402 235.166 279.402H135.311V274.194H236.814C246.061 274.194 253.584 283.227 253.584 294.33C253.584 299.278 252.09 303.815 249.615 307.324Z" fill="#2C2F4C"></path></g><path d="M135.311 284.847L146.317 285.909L135.311 286.864V284.847Z" fill="#32385C"></path><path d="M135.311 299.708L156.993 300.983L135.311 302.044V299.708Z" fill="#32385C"></path><path d="M162.609 310.13L155.777 302.048L148.947 310.13V287.072H162.609V310.13Z" fill="#F6CD7D"></path><g style="mix-blend-mode:multiply" opacity="0.22"><path d="M342.194 288.992L267.996 266.232H319.217C329.777 266.232 338.7 274.629 341.613 286.164C341.846 287.086 342.04 288.031 342.194 288.992Z" fill="#2C2F4C"></path></g><path d="M361.506 181.942C361.506 189.7 358.887 196.724 354.652 201.808C350.418 206.893 344.568 210.038 338.106 210.038H229.971V153.844H338.106C348.666 153.844 357.589 162.242 360.504 173.778C361.155 176.362 361.506 179.104 361.506 181.944V181.942Z" fill="#E1C5BF"></path><path d="M279.104 181.942C279.104 189.702 276.485 196.724 272.25 201.808C268.015 206.893 262.164 210.038 255.704 210.038H150.884C149.053 210.038 147.568 208.255 147.568 206.057C147.568 203.859 149.053 202.076 150.884 202.076H154.2V161.806H150.884C149.053 161.806 147.568 160.023 147.568 157.825C147.568 155.627 149.053 153.844 150.884 153.844H255.704C268.628 153.844 279.104 166.424 279.104 181.942Z" fill="white"></path><path d="M154.197 202.076V161.806H255.701C264.948 161.806 272.471 170.839 272.471 181.94C272.471 193.041 264.948 202.076 255.701 202.076H154.197Z" fill="#F0D7CE"></path><g style="mix-blend-mode:multiply" opacity="0.22"><path d="M268.501 194.936C269.57 192.352 270.169 189.44 270.169 186.365C270.169 175.695 262.938 167.014 254.053 167.014H154.197V161.806H255.701C264.948 161.806 272.471 170.839 272.471 181.942C272.471 186.89 270.976 191.427 268.501 194.936Z" fill="#2C2F4C"></path></g><g style="mix-blend-mode:multiply" opacity="0.3"><path d="M154.197 172.458L165.206 173.521L154.197 174.476V172.458Z" fill="#2C2F4C"></path></g><g style="mix-blend-mode:multiply" opacity="0.3"><path d="M154.197 187.32L175.879 188.595L154.197 189.656V187.32Z" fill="#2C2F4C"></path></g><path d="M297.038 210.038V266.23H188.9C184.595 266.23 180.568 264.837 177.102 262.403C175.362 261.184 173.768 259.703 172.354 258.002C168.117 252.92 165.5 245.896 165.5 238.136C165.5 234.375 166.115 230.78 167.234 227.498C169.317 221.389 173.141 216.357 177.963 213.292C180.594 211.617 183.521 210.528 186.629 210.168C187.376 210.08 188.133 210.038 188.898 210.038H297.036H297.038Z" fill="#E1C5BF"></path><g style="mix-blend-mode:multiply" opacity="0.22"><path d="M274.688 225.91L177.969 213.29C180.6 211.615 183.526 210.526 186.634 210.166C187.382 210.078 188.139 210.036 188.904 210.036H274.003L274.688 225.908V225.91Z" fill="#2C2F4C"></path></g><path d="M247.904 238.136C247.904 245.896 250.523 252.918 254.758 258.002C258.993 263.086 264.844 266.232 271.304 266.232H376.124C377.956 266.232 379.44 264.449 379.44 262.251C379.44 260.053 377.956 258.27 376.124 258.27H372.808V218H376.124C377.956 218 379.44 216.217 379.44 214.019C379.44 211.821 377.956 210.038 376.124 210.038H271.304C258.38 210.038 247.904 222.618 247.904 238.136Z" fill="#FDF0E8"></path><path d="M372.811 258.27V218H271.307C262.06 218 254.537 227.033 254.537 238.136C254.537 249.239 262.06 258.272 271.307 258.272H372.811V258.27Z" fill="#F0D7CE"></path><g style="mix-blend-mode:multiply" opacity="0.22"><path d="M258.506 251.13C257.438 248.546 256.838 245.634 256.838 242.559C256.838 231.889 264.07 223.208 272.955 223.208H372.811V218H271.307C262.06 218 254.537 227.033 254.537 238.136C254.537 243.084 256.031 247.621 258.506 251.13Z" fill="#2C2F4C"></path></g><g style="mix-blend-mode:multiply" opacity="0.3"><path d="M372.81 228.651L361.803 229.715L372.81 230.67V228.651Z" fill="#2C2F4C"></path></g><g style="mix-blend-mode:multiply" opacity="0.3"><path d="M372.811 243.514L351.129 244.789L372.811 245.85V243.514Z" fill="#2C2F4C"></path></g><path d="M349.376 243.496L344.977 238.294L340.58 243.496V228.651H349.376V243.496Z" fill="#32385C"></path><path d="M165.339 82.716C165.377 81.9665 165.85 81.2411 166.741 80.8974L301.157 29.1699C301.832 28.9101 302.609 28.9481 303.257 29.2759L431.786 94.2709C432.639 94.7026 433.036 95.472 432.998 96.2214L432.701 102.137L422.309 101.613L297.182 149.765C296.507 150.025 295.73 149.987 295.082 149.659L175.435 89.1549L165.043 88.6313L165.341 82.716H165.339Z" fill="#32385C"></path><path d="M166.253 90.5818L294.782 155.579C295.429 155.907 296.205 155.945 296.884 155.685L396.513 117.343L400.175 115.936L431.296 103.957C433.078 103.27 433.19 101.05 431.486 100.19L407.518 88.0697L404.616 86.6029L302.957 35.1932C302.309 34.8655 301.534 34.8275 300.855 35.0873L166.443 86.8147C164.661 87.5002 164.551 89.7205 166.253 90.5818Z" fill="#3E4668"></path><path d="M220.762 156.764C247.81 149.152 295.123 169.704 295.123 169.704C295.123 169.704 344.265 154.02 370.412 164.316C369.099 116.773 338.875 78.1375 299.84 76.167C260.804 74.1966 226.85 109.595 220.762 156.764Z" fill="#32385C"></path><path d="M411.398 216.237L411.993 83.1017C411.997 82.1484 411.222 81.365 410.267 81.359H410.255C409.302 81.355 408.519 82.1324 408.513 83.0857L407.918 216.221C406.114 218.45 403.545 222.904 403.445 230.294L409.592 230.322L415.739 230.35C415.707 222.958 413.178 218.481 411.394 216.237H411.398Z" fill="#32385C"></path><g style="mix-blend-mode:multiply" opacity="0.22"><path d="M236.884 306.271C236.434 305.823 234.355 305.697 232.136 305.523C231.816 305.499 231.498 305.473 231.179 305.447C228.314 305.195 226.019 303.451 223.272 302.052C222.417 301.618 221.374 300.721 220.358 299.708C219.678 299.028 219.009 298.301 218.42 297.627L219.848 297.128C219.848 297.128 193.927 258.222 190.122 252.705C188.609 250.51 185.593 249.651 182.507 249.411L182.355 248.33L189.061 232.534L187.161 231.611L180.547 247.193C180.547 247.193 177.766 247.325 178.082 247.283C179.045 247.153 175.984 244.575 174.768 244.065C173.831 243.674 169.922 244.425 168.182 244.791L168.042 243.796L155.309 240.818C152.496 233.41 154.318 232.185 155.181 229.191C156.112 225.962 153.283 221.965 150.309 215.664C149.442 213.825 148.199 212.354 146.873 211.189L147.073 210.45L147.36 209.385C149.776 210.786 151.422 207.654 152.001 206.293C152.163 205.911 152.494 205.632 152.898 205.524L153.114 205.466C153.403 205.388 153.591 205.126 153.575 204.82C153.517 203.751 153.469 201.199 154.088 198.835C155.405 198.501 158.122 196.433 157.536 193.425C156.941 190.362 149.74 183.525 142.352 184.702C142.35 184.698 142.348 184.692 142.346 184.688L142.173 184.356C141.677 183.407 140.537 182.973 139.624 183.385L138.95 183.689C136.991 181.091 131.625 175.209 124.01 176.552C114.3 178.265 111.307 185.138 105.66 184.792C100.015 184.444 88.3086 173.848 80.5458 184.606C72.7811 195.364 87.134 203.649 95.528 198.907C103.922 194.165 108.684 210.13 117.254 202.856C125.824 195.581 121.633 186.549 128.151 184.774C131.683 183.811 134.566 184.23 136.467 184.814L136.272 184.902C135.361 185.314 135.023 186.417 135.52 187.364L135.694 187.696C135.77 187.84 135.862 187.971 135.964 188.089C131.631 192.584 134.374 198.291 136.038 201.009C137.045 202.654 139.306 203.227 141.344 202.732L140.792 204.676L139.943 207.346H139.941C130.019 213.913 131.266 226.493 131.927 232.908C132.588 239.321 128.491 254.295 133.261 252.177C133.405 252.113 133.561 252.051 133.729 251.993C133.803 253.074 133.97 254.553 134.346 256.17C135.59 261.482 139.088 268.292 148.887 267.411C164.712 265.994 176.114 266.884 176.114 266.884L178.477 305.313L180.515 305.773C180.627 306.992 180.731 308.229 180.793 309.184C180.809 309.406 180.819 309.612 180.831 309.798C180.911 311.319 180.066 312.762 179.354 313.843C179.199 314.083 179.041 314.324 178.895 314.574C178.683 314.938 178.495 315.318 178.372 315.729C177.778 317.702 180.591 319.001 183.927 320.094C184.081 320.144 184.221 320.192 184.356 320.24C187.169 321.229 186.32 321.673 190.573 323.665C195.03 325.753 197.123 325.042 197.577 324.53C197.627 324.474 197.641 324.4 197.621 324.315C197.485 323.715 195.739 322.444 193.899 321.059C193.633 320.861 193.37 320.661 193.106 320.46C190.747 318.649 189.744 316.007 188.146 313.377C187.648 312.56 187.253 311.277 186.947 309.922C186.734 308.973 186.564 307.989 186.432 307.104L188.224 307.508C188.224 307.508 188.669 286.878 188.497 272.431L195.871 281.472L211.129 300.179L212.89 299.562C213.714 300.609 214.553 301.69 215.178 302.528C215.318 302.711 215.443 302.885 215.559 303.043C216.496 304.326 216.674 306.067 216.746 307.412C216.762 307.71 216.782 308.007 216.812 308.307C216.856 308.745 216.93 309.184 217.072 309.614C217.747 311.672 220.669 311.223 223.877 310.298C223.969 310.272 224.057 310.248 224.143 310.224C224.151 310.222 224.161 310.22 224.169 310.216C224.207 310.206 224.241 310.198 224.279 310.188C227.04 309.458 226.628 310.329 231.071 309.674C235.717 308.987 236.926 307.184 236.982 306.48C236.988 306.403 236.956 306.331 236.892 306.267L236.884 306.271ZM154.374 197.864C154.366 197.888 154.36 197.914 154.35 197.938C154.358 197.914 154.364 197.888 154.372 197.864H154.374ZM154.192 198.433C154.192 198.433 154.186 198.453 154.184 198.461C154.186 198.451 154.19 198.441 154.192 198.433Z" fill="#2C2F4C"></path></g><path d="M144.207 207.278L149.784 213.963L151.123 210.234L153.16 204.552L147.06 199.878L145.356 204.46L144.207 207.278Z" fill="#F6AD87"></path><path d="M145.357 204.46C146.998 207.864 149.948 209.658 151.125 210.234L153.162 204.552L147.061 199.88L145.355 204.462L145.357 204.46Z" fill="#CE7660"></path><path d="M159.108 197.866C159.108 197.866 162.984 196.181 162.231 193.937C161.478 191.693 158.016 192.778 158.016 192.778C158.016 192.778 159.556 195.332 159.108 197.866Z" fill="#32385C"></path><path d="M146.097 184.652C146.097 184.652 140.937 174.622 131.075 176.334C121.213 178.047 117.607 184.92 111.992 184.574C106.376 184.226 95.6153 173.631 86.8936 184.388C78.172 195.146 91.7878 203.431 100.603 198.689C109.419 193.947 112.761 209.912 121.978 202.638C131.195 195.364 127.807 186.331 134.483 184.556C141.159 182.781 145.21 185.703 145.21 185.703L146.097 184.654V184.652Z" fill="#32385C"></path><path d="M145.479 199.486C145.479 199.486 147.3 204.646 150.596 208.383C153.273 211.415 155.628 207.614 156.42 206.077C156.615 205.696 156.971 205.416 157.384 205.308L157.604 205.25C157.9 205.172 158.112 204.91 158.122 204.604C158.163 203.401 158.383 200.312 159.514 197.734C159.963 196.711 160.015 195.649 159.875 194.672C159.566 192.514 158.317 190.769 158.317 190.769C157.422 190.421 156.579 190.224 155.788 190.152C148.511 189.502 145.477 199.486 145.477 199.486H145.479Z" fill="#F6AD87"></path><path d="M146.082 183.165L142.596 184.68C141.648 185.092 141.213 186.195 141.625 187.144L141.769 187.475C142.181 188.424 143.283 188.859 144.231 188.447L147.718 186.931C148.666 186.519 149.101 185.416 148.689 184.468L148.545 184.136C148.133 183.188 147.031 182.753 146.082 183.165Z" fill="white"></path><path d="M151.412 193.457L152.311 198.363C152.311 198.363 155.619 194.538 159.88 194.674C159.57 192.516 158.322 190.771 158.322 190.771C157.427 190.423 156.584 190.226 155.793 190.154L151.412 193.457Z" fill="#CE7660"></path><path d="M159.167 198.619C159.273 198.319 159.389 198.026 159.516 197.734C159.56 197.634 159.6 197.534 159.636 197.432C160.383 196.866 162.453 195.098 161.276 193.721C160.925 193.311 160.297 193.159 159.522 193.219C157.161 193.401 153.46 195.563 152.307 198.361C152.307 198.361 152.021 195.296 149.972 195.396C148.378 195.474 148.224 198.065 148.919 199.726C149.223 200.452 148.941 201.289 148.24 201.643C147.926 201.801 147.577 201.97 147.201 202.138C144.854 203.193 141.943 202.74 140.924 200.793C139.286 197.664 136.57 190.573 144.65 185.931C153.647 180.761 162.719 189.602 163.098 193.209C163.416 196.219 160.509 198.289 159.165 198.619H159.167Z" fill="#32385C"></path><path d="M232.482 306.267C232.366 306.97 230.998 308.773 226.289 309.46C221.581 310.148 222.334 309.16 219.042 310.086C215.752 311.011 212.789 311.461 212.298 309.402C212.124 308.679 212.144 307.931 212.168 307.2C212.216 305.855 212.194 304.114 211.371 302.831C211.269 302.673 211.159 302.5 211.035 302.316C209.477 299.948 206.385 295.629 206.385 295.629L212.845 294.888C212.845 294.888 214.579 297.424 216.469 299.492C217.396 300.505 218.359 301.402 219.176 301.836C221.798 303.235 223.938 304.978 226.781 305.231C227.098 305.257 227.414 305.285 227.731 305.307C230.248 305.507 232.592 305.643 232.482 306.267Z" fill="#F6AD87"></path><path d="M219.044 310.084C222.336 309.16 221.581 310.148 226.289 309.46C230.998 308.773 232.366 306.97 232.484 306.267C232.59 305.641 230.246 305.505 227.731 305.307L227.709 305.355C227.709 305.355 224.947 307.454 221.015 307.686C217.811 307.875 214.381 307.082 212.168 307.196C212.144 307.927 212.124 308.673 212.298 309.398C212.791 311.457 215.752 311.005 219.044 310.082V310.084Z" fill="#2B3351"></path><path d="M216.469 299.492C215.792 300.187 213.938 301.816 211.035 302.316C209.477 299.948 206.385 295.629 206.385 295.629L212.845 294.888C212.845 294.888 214.579 297.424 216.469 299.492Z" fill="#CE7660"></path><path d="M216.188 296.91L207.195 299.966L193.601 281.258L184.909 269.296L178.844 260.954L170.047 261.24L173.527 249.889C173.527 249.889 187.105 246.969 190.415 252.487C193.729 258.004 216.188 296.91 216.188 296.91Z" fill="#2B3351"></path><path d="M193.602 281.26L184.91 269.298L187.475 258.732C188.028 260.267 191.125 271.87 193.602 281.26Z" fill="#232A47"></path><path d="M191.474 324.312C190.977 324.826 188.821 325.537 184.55 323.449C180.28 321.361 181.462 320.973 178.22 319.878C174.982 318.785 172.283 317.486 173.052 315.513C173.322 314.82 173.765 314.216 174.203 313.629C175.01 312.548 175.985 311.105 176.039 309.584C176.045 309.396 176.053 309.192 176.057 308.97C176.122 306.143 176.041 300.845 176.041 300.845L181.788 303.876C181.788 303.876 181.77 306.942 182.145 309.708C182.331 311.063 182.613 312.346 183.038 313.163C184.403 315.793 185.17 318.435 187.367 320.246C187.615 320.447 187.859 320.645 188.108 320.845C190.068 322.428 191.922 323.861 191.476 324.314L191.474 324.312Z" fill="#F6AD87"></path><path d="M178.222 319.878C181.462 320.973 180.278 321.361 184.549 323.449C188.819 325.538 190.977 324.826 191.474 324.314C191.918 323.861 190.064 322.428 188.104 320.845L188.058 320.873C188.058 320.873 184.585 321.043 181.213 319.017C178.464 317.368 176.089 314.78 174.201 313.625C173.765 314.212 173.322 314.816 173.052 315.511C172.283 317.484 174.98 318.781 178.22 319.878H178.222Z" fill="#2B3351"></path><path d="M182.146 309.708C181.191 309.898 178.734 310.194 176.057 308.969C176.123 306.141 176.041 300.843 176.041 300.843L181.788 303.875C181.788 303.875 181.77 306.94 182.146 309.706V309.708Z" fill="#CE7660"></path><path d="M183.636 307.294L174.086 305.098L175.142 266.668C175.142 266.668 163.818 265.778 147.867 267.195C137.99 268.077 135.098 261.266 134.327 255.954C133.859 252.683 134.189 249.981 134.189 249.981C134.189 249.981 146.542 250.37 158.011 250.033C162.132 249.911 166.145 249.695 169.425 249.331C181.828 247.956 186.429 254.897 187.474 258.73C188.562 262.723 183.636 307.294 183.636 307.294Z" fill="#32385C"></path><path d="M158.009 250.033L158.043 250.67C143.951 250.886 136.816 254.393 134.327 255.952C133.859 252.681 134.189 249.979 134.189 249.979C134.189 249.979 146.542 250.368 158.011 250.031L158.009 250.033Z" fill="#232A47"></path><path d="M168.318 244.757C168.318 244.757 174.658 243.338 175.829 243.848C177 244.357 179.83 246.933 178.858 247.065C177.885 247.195 166.185 247.709 166.185 247.709L166.053 245.196L168.318 244.757Z" fill="#F6AD87"></path><path d="M157.562 228.975C156.343 232.205 154.188 233.372 157.242 242.477L157.64 250.093C157.64 250.093 151.439 250.013 145.189 250.335C140.47 250.578 135.724 251.048 133.594 251.961C128.636 254.08 134.066 239.105 133.976 232.692C133.886 226.279 133.758 213.697 144.266 207.13C144.266 207.13 151.479 209.143 153.892 215.448C156.305 221.749 158.778 225.746 157.56 228.975H157.562Z" fill="#A78FE6"></path><path d="M157.269 242.952L157.643 250.107C157.643 250.107 151.442 250.027 145.192 250.349C144.221 249.691 143.55 248.862 143.3 247.836C141.548 240.664 142.071 226.018 142.071 226.018L152.313 227.043L154.063 241.867L157.267 242.952H157.269Z" fill="#725CA4"></path><path d="M183.115 249.569L166.978 250.388L166.838 247.711L182.975 246.893L183.115 249.569Z" fill="#32385C"></path><path d="M182.667 248.834L180.85 247.91L189.33 231.393L191.147 232.317L182.667 248.834Z" fill="#32385C"></path><path d="M152.415 226.151L155.377 240.296L169.125 243.58L169.424 249.331C169.424 249.331 147.473 253.694 145.139 246.929C142.806 240.164 142.127 226.004 142.127 226.004L152.413 226.151H152.415Z" fill="#A78FE6"></path><g style="mix-blend-mode:multiply" opacity="0.22"><path d="M314.278 322.828L308 262.491C307.045 253.314 298.805 245.85 289.634 245.85C280.463 245.85 273.777 253.316 274.731 262.491L281.01 322.828H283.483L282.662 314.94H310.984L311.805 322.828H314.278ZM306.242 269.386H277.92L277.202 262.491C276.389 254.679 282.081 248.324 289.889 248.324C297.698 248.324 304.712 254.679 305.525 262.491L306.242 269.386ZM307.736 283.746H279.414L278.177 271.862H306.5L307.736 283.746ZM309.23 298.107H280.908L279.672 286.222H307.994L309.23 298.107ZM310.725 312.468H282.402L281.166 300.583H309.488L310.725 312.468Z" fill="#2C2F4C"></path></g><path d="M270.536 262.491L263.928 325.979H266.401L267.549 314.94H295.872L294.723 325.979H297.196L303.804 262.491C304.759 253.314 298.073 245.85 288.902 245.85C279.731 245.85 271.491 253.316 270.536 262.491ZM301.331 262.491L300.614 269.386H272.292L273.009 262.491C273.822 254.679 280.836 248.324 288.644 248.324C296.453 248.324 302.144 254.679 301.331 262.491ZM270.798 283.744L272.034 271.86H300.356L299.12 283.744H270.798ZM298.862 286.218L297.626 298.103H269.303L270.54 286.218H298.862ZM267.809 312.464L269.046 300.579H297.368L296.131 312.464H267.809Z" fill="#32385C"></path><path d="M70.3496 162.675C67.543 162.675 64.7783 161.7 62.8985 159.436C60.4894 156.532 60.1657 152.07 62.0914 148.332C63.6576 145.293 66.648 142.735 70.5094 141.13C73.8974 139.721 77.5111 139.138 81.007 138.574C81.5683 138.484 82.0937 138.864 82.1836 139.423C82.2735 139.983 81.8939 140.511 81.3346 140.601C77.9566 141.146 74.4627 141.71 71.2965 143.025C67.8806 144.443 65.2597 146.664 63.9153 149.272C62.3851 152.241 62.6168 155.881 64.4766 158.123C67.1594 161.356 72.4551 161.152 75.8231 159.11C79.7624 156.72 82.1476 152.317 83.7857 148.75C84.0094 148.26 84.5747 148.029 85.0761 148.217C85.5795 148.404 85.8532 148.95 85.7034 149.466C85.0981 151.544 85.4557 153.924 86.6842 155.996C87.9127 158.071 89.8285 159.526 91.94 159.993C92.4933 160.115 92.8429 160.663 92.721 161.216C92.5992 161.77 92.0518 162.12 91.4985 161.998C88.8337 161.41 86.4345 159.604 84.9183 157.044C84.2751 155.958 83.8276 154.801 83.5819 153.626C81.9658 156.37 79.8344 159.078 76.8859 160.865C74.9961 162.012 72.6569 162.673 70.3456 162.673L70.3496 162.675Z" fill="#F0D7CE"></path><path d="M89.1612 144.709C88.7896 144.709 88.4221 144.665 88.0625 144.575C87.0777 144.328 86.1748 143.632 85.7033 142.763C85.3238 142.061 85.2479 141.29 85.4896 140.587C86.0529 138.948 87.9766 138.384 89.5128 138.786C90.4816 139.04 91.2607 139.563 92.0158 140.067C92.1457 140.153 92.2715 140.239 92.3954 140.319C92.7889 139.384 92.9247 138.244 92.7649 137.061C92.4393 134.645 90.9111 132.565 88.9614 131.883C87.9167 131.52 86.6662 131.622 85.6134 132.157C84.7265 132.609 84.1032 133.308 83.8555 134.13C83.6917 134.673 83.1204 134.979 82.577 134.815C82.0337 134.651 81.728 134.078 81.8918 133.536C82.3034 132.175 83.2942 131.034 84.6845 130.327C86.2267 129.541 88.0785 129.399 89.6406 129.943C92.3434 130.886 94.369 133.572 94.8025 136.784C95.0222 138.414 94.8185 139.965 94.2252 141.268C96.1509 142.025 98.3323 142.191 100.326 141.698C100.877 141.562 101.433 141.898 101.568 142.447C101.704 142.997 101.369 143.554 100.819 143.69C98.2304 144.332 95.4777 144.078 93.0526 143.007C92.0038 144.082 90.5675 144.703 89.1652 144.703L89.1612 144.709ZM88.5459 140.718C88.0525 140.718 87.5531 140.904 87.4313 141.256C87.3773 141.414 87.4033 141.592 87.5092 141.786C87.7089 142.153 88.1324 142.475 88.5659 142.585C89.3989 142.795 90.3718 142.539 91.1488 141.957C91.0569 141.896 90.9651 141.836 90.8752 141.774C90.2339 141.344 89.6306 140.938 88.9954 140.772C88.8536 140.736 88.7017 140.718 88.5479 140.718H88.5459Z" fill="#F0D7CE"></path><path d="M107.519 153.53C106.965 153.53 106.508 153.089 106.494 152.531L106.004 134.325C105.988 133.758 106.436 133.286 107.003 133.272C107.564 133.254 108.042 133.704 108.056 134.271L108.545 152.477C108.561 153.045 108.114 153.516 107.546 153.53C107.537 153.53 107.529 153.53 107.519 153.53Z" fill="#F0D7CE"></path><path d="M100.204 146.2C99.7529 146.2 99.3394 145.898 99.2135 145.443C99.0657 144.895 99.3893 144.332 99.9347 144.184L111.845 140.952C112.392 140.804 112.955 141.128 113.103 141.674C113.251 142.221 112.927 142.785 112.382 142.933L100.472 146.164C100.382 146.188 100.292 146.2 100.202 146.2H100.204Z" fill="#F0D7CE"></path><path d="M126.777 152.191C124.929 152.191 122.929 151.85 120.722 151.158C120.278 151.02 119.985 150.601 120.003 150.137C120.021 149.673 120.35 149.28 120.802 149.178L121.519 149.016C121.443 148.876 121.399 148.714 121.397 148.544C121.389 147.933 121.413 147.335 121.469 146.75L122.444 122.81C122.468 122.243 122.951 121.805 123.511 121.827C124.076 121.851 124.517 122.329 124.493 122.894L123.784 140.311C124.188 139.767 124.637 139.276 125.133 138.842C127.859 136.452 132.66 135.858 135.458 138.784C137.536 140.954 137.852 144.571 136.209 147.385C134.817 149.771 132.126 151.502 129.014 152.014C128.291 152.133 127.546 152.191 126.775 152.191H126.777ZM123.401 149.749C125.352 150.171 127.094 150.249 128.684 149.987C131.201 149.573 133.353 148.213 134.442 146.348C135.612 144.344 135.414 141.702 133.98 140.203C132.022 138.156 128.461 138.658 126.489 140.387C124.835 141.836 123.79 144.148 123.521 146.878L123.451 148.572C123.441 148.826 123.339 149.056 123.179 149.228C123.277 149.348 123.347 149.49 123.383 149.649C123.391 149.683 123.397 149.715 123.401 149.749Z" fill="#F0D7CE"></path><path d="M132.387 126.592C132.167 126.592 131.948 126.568 131.732 126.52C130.949 126.344 130.33 125.852 130.034 125.167C129.76 124.531 129.788 123.816 130.118 123.148C130.499 122.375 131.249 121.767 132.076 121.559C132.673 121.41 133.256 121.428 133.808 121.535C133.837 120.432 133.732 119.331 133.492 118.254C133.292 117.357 132.785 115.794 131.638 115.406C130.555 115.041 129.265 115.958 128.74 117.045C128.088 118.388 128.142 120.089 128.188 121.589C128.206 122.157 127.761 122.631 127.193 122.647C126.634 122.661 126.153 122.219 126.137 121.651C126.087 120.001 126.023 117.946 126.892 116.15C127.815 114.243 130.088 112.716 132.293 113.46C133.849 113.985 134.986 115.528 135.494 117.806C135.819 119.269 135.931 120.768 135.825 122.261V122.287C135.903 122.327 135.983 122.367 136.063 122.407C136.734 122.745 137.367 123.064 137.993 123.136C138.574 123.202 139.185 122.944 139.303 122.583C139.479 122.043 140.056 121.749 140.595 121.923C141.135 122.099 141.428 122.679 141.255 123.216C140.769 124.711 139.129 125.334 137.757 125.175C136.876 125.073 136.093 124.715 135.394 124.367C135.178 124.907 134.856 125.428 134.369 125.858C133.833 126.332 133.112 126.59 132.385 126.59L132.387 126.592ZM132.971 123.504C132.831 123.504 132.699 123.52 132.575 123.55C132.329 123.612 132.076 123.82 131.958 124.056C131.918 124.137 131.878 124.255 131.918 124.349C131.96 124.445 132.084 124.491 132.179 124.513C132.461 124.577 132.813 124.495 133.01 124.317C133.212 124.139 133.374 123.89 133.498 123.566C133.308 123.522 133.132 123.502 132.969 123.502L132.971 123.504Z" fill="#F0D7CE"></path><path d="M147.149 136.564C146.695 136.564 146.28 136.26 146.158 135.8C146.012 135.253 146.338 134.689 146.887 134.545L158.755 131.39C159.302 131.244 159.866 131.57 160.009 132.117C160.155 132.665 159.83 133.228 159.28 133.372L147.412 136.528C147.324 136.552 147.235 136.562 147.149 136.562V136.564Z" fill="#F0D7CE"></path><path d="M145.469 132.447C145.049 132.447 144.657 132.189 144.504 131.771C144.31 131.24 144.584 130.65 145.115 130.455L160.507 124.833C161.038 124.639 161.627 124.913 161.823 125.444C162.017 125.976 161.743 126.566 161.212 126.761L145.82 132.383C145.704 132.425 145.584 132.445 145.469 132.445V132.447Z" fill="#F0D7CE"></path><path d="M178.465 141.492C176.543 141.492 174.541 140.892 172.674 139.737C170.822 138.592 169.154 136.989 167.266 134.541C165.8 132.639 164.272 130.323 164.068 127.579C163.82 124.251 165.792 120.724 168.974 118.802C172.324 116.779 176.147 116.735 178.764 117.057C179.328 117.125 179.727 117.639 179.659 118.2C179.589 118.764 179.074 119.161 178.517 119.095C176.221 118.814 172.885 118.84 170.035 120.56C167.498 122.091 165.924 124.851 166.115 127.427C166.279 129.629 167.612 131.626 168.892 133.288C170.622 135.533 172.12 136.983 173.752 137.993C175.738 139.22 177.959 139.695 179.851 139.3C181.917 138.866 183.625 137.289 184.004 135.465C184.12 134.909 184.663 134.553 185.219 134.669C185.774 134.785 186.13 135.329 186.014 135.884C185.464 138.524 183.157 140.704 180.273 141.31C179.683 141.434 179.078 141.494 178.467 141.494L178.465 141.492Z" fill="#F0D7CE"></path><path d="M187.062 123.388C186.501 123.388 185.933 123.282 185.4 123.07C184.351 122.651 183.588 121.881 183.252 120.902C182.835 119.685 183.127 118.286 183.998 117.341C185.364 115.854 187.599 115.884 189.207 116.571C189.411 116.659 189.609 116.755 189.801 116.857C189.649 115.592 189.147 114.347 188.614 113.176C188.021 111.875 187.457 110.86 186.634 110.136C185.939 109.525 184.819 109.061 183.888 109.407C183.492 109.553 183.135 109.931 182.977 110.366C182.907 110.556 182.819 110.922 183.001 111.24C183.28 111.733 183.109 112.359 182.615 112.638C182.122 112.918 181.497 112.746 181.217 112.253C180.779 111.483 180.721 110.564 181.049 109.661C181.417 108.654 182.21 107.838 183.175 107.481C184.693 106.917 186.583 107.353 187.991 108.592C189.151 109.613 189.875 110.988 190.484 112.323C191.233 113.965 191.924 115.756 191.902 117.707C191.9 117.904 191.89 118.102 191.87 118.296C191.972 118.378 192.074 118.46 192.174 118.542C192.454 118.77 192.717 118.983 192.989 119.191C194.253 120.161 195.32 120.596 196.253 120.522C196.82 120.48 197.312 120.9 197.358 121.464C197.402 122.029 196.98 122.523 196.417 122.569C194.955 122.685 193.428 122.113 191.742 120.822C191.589 120.704 191.435 120.584 191.285 120.462C190.78 121.539 189.992 122.417 189.012 122.926C188.42 123.234 187.749 123.39 187.068 123.39L187.062 123.388ZM187.014 118.17C186.427 118.17 185.869 118.334 185.508 118.728C185.152 119.115 185.022 119.735 185.192 120.235C185.38 120.78 185.879 121.05 186.161 121.164C186.784 121.414 187.511 121.39 188.059 121.104C188.764 120.736 189.309 120.025 189.605 119.147C189.215 118.876 188.82 118.636 188.4 118.458C187.979 118.278 187.489 118.17 187.016 118.17H187.014Z" fill="#F0D7CE"></path><path d="M46.8436 262.035C46.462 262.035 46.1105 261.823 45.9327 261.482C45.7449 261.12 45.7888 260.682 46.0445 260.365C49.6762 255.864 54.1749 251.993 59.1709 249.051C51.2024 247.487 43.5954 244.655 36.5179 240.61C36.1623 240.406 35.9605 240.011 36.0065 239.603C36.0524 239.195 36.3381 238.853 36.7316 238.736L61.2525 231.373C61.7938 231.211 62.3671 231.519 62.5309 232.061C62.6947 232.604 62.3851 233.176 61.8437 233.34L39.6661 239.999C46.7797 243.756 54.4106 246.288 62.3851 247.533C62.8246 247.601 63.1702 247.946 63.2401 248.386C63.31 248.826 63.0883 249.261 62.6907 249.463C57.6268 252.035 53.0023 255.594 49.1968 259.829L68.8354 258.558C69.4008 258.52 69.8882 258.95 69.9261 259.517C69.9621 260.083 69.5346 260.57 68.9673 260.608L46.9075 262.035C46.8855 262.035 46.8636 262.037 46.8416 262.037L46.8436 262.035Z" fill="#F0D7CE"></path><path d="M70.7785 241.945C70.2731 241.945 69.8337 241.573 69.7637 241.058C69.6858 240.496 70.0794 239.979 70.6407 239.901L79.0527 238.738C79.614 238.662 80.1314 239.053 80.2093 239.615C80.2872 240.176 79.8937 240.694 79.3324 240.772L70.9204 241.935C70.8724 241.941 70.8245 241.945 70.7785 241.945Z" fill="#F0D7CE"></path><path d="M72.2391 248.088C71.8036 248.088 71.3981 247.806 71.2602 247.369C71.0904 246.827 71.3921 246.252 71.9314 246.082L82.8225 242.665C83.3618 242.495 83.9392 242.796 84.1089 243.336C84.2787 243.878 83.9771 244.453 83.4377 244.623L72.5467 248.04C72.4448 248.072 72.3409 248.088 72.2391 248.088Z" fill="#F0D7CE"></path><path d="M91.1122 245.234C90.7647 245.234 90.431 245.057 90.2393 244.747L84.0227 234.687C83.725 234.205 83.8729 233.572 84.3563 233.274C84.8377 232.976 85.4709 233.126 85.7686 233.608L89.7039 239.973L89.4562 237.213C89.3843 236.403 89.2485 234.899 90.2613 233.885C90.7587 233.388 91.4538 233.124 92.2049 233.144C92.7703 233.158 93.3356 233.326 93.833 233.614C93.855 233.168 93.9549 232.706 94.1966 232.265C94.662 231.411 95.535 230.9 96.5917 230.866C97.8922 230.82 99.2246 231.503 99.8978 232.564C100.99 234.281 100.719 236.449 100.539 237.884C100.469 238.448 99.9537 238.845 99.3924 238.775C98.8291 238.706 98.4315 238.192 98.5015 237.628C98.6912 236.116 98.8071 234.675 98.1659 233.666C97.8822 233.22 97.233 232.894 96.6596 232.916C96.334 232.926 96.1123 233.038 95.9984 233.248C95.7847 233.64 95.9025 234.279 96.0544 234.956L97.3468 240.722C97.4467 241.17 97.237 241.631 96.8334 241.849C96.4299 242.067 95.9285 241.991 95.6089 241.661C94.682 240.708 94.3604 239.471 94.0887 238.18C93.8909 237.239 93.6852 236.265 93.1318 235.654C92.8921 235.39 92.4986 235.206 92.153 235.198C91.9572 235.19 91.8114 235.24 91.7115 235.34C91.4179 235.634 91.4359 236.325 91.4998 237.031L92.135 244.117C92.177 244.591 91.8893 245.033 91.4379 245.182C91.33 245.218 91.2221 245.234 91.1142 245.234H91.1122Z" fill="#F0D7CE"></path><path d="M108.701 239.171C107.702 239.171 106.705 238.943 105.814 238.47C103.471 237.227 102.108 234.431 102.576 231.817C103.043 229.205 105.291 227.055 107.919 226.701C108.477 226.625 108.998 227.021 109.072 227.582C109.148 228.144 108.752 228.661 108.191 228.735C106.451 228.967 104.905 230.448 104.595 232.177C104.286 233.905 105.223 235.83 106.775 236.653C108.327 237.477 110.444 237.171 111.701 235.944C112.106 235.548 112.756 235.556 113.151 235.962C113.547 236.367 113.539 237.017 113.133 237.413C111.957 238.562 110.327 239.169 108.701 239.169V239.171Z" fill="#F0D7CE"></path><path d="M112.559 227.794C112.315 227.794 112.075 227.708 111.886 227.542C111.592 227.287 111.468 226.889 111.564 226.511C111.902 225.192 112.253 223.829 112.044 222.558C111.878 221.545 111.179 220.432 110.17 220.264C109.566 220.164 108.881 220.458 108.538 220.962C108.194 221.465 108.17 222.213 108.484 222.736C108.773 223.224 108.614 223.853 108.128 224.143C107.641 224.433 107.012 224.275 106.722 223.787C105.999 222.572 106.047 220.972 106.844 219.804C107.641 218.635 109.113 218.008 110.507 218.238C112.267 218.529 113.734 220.168 114.071 222.225C114.231 223.194 114.161 224.147 114.003 225.056L116.187 224.149C116.71 223.931 117.311 224.181 117.527 224.705C117.745 225.228 117.495 225.83 116.972 226.046L112.952 227.714C112.827 227.766 112.693 227.792 112.559 227.792V227.794Z" fill="#F0D7CE"></path></g><defs><clipPath id="clip0_599_78"><rect width="403" height="301" fill="white" transform="translate(36 29)"></rect></clipPath></defs></svg> 